<svg width="254" height="291" viewBox="0 0 254 291" fill="none" xmlns="http://www.w3.org/2000/svg">
<path d="M58.5044 290.607C57.4556 290.049 56.0134 288.606 55.5218 287.654C55.2596 287.162 54.8335 284.505 54.5713 281.749C54.2763 278.993 53.9814 276.499 53.9158 276.237C53.8175 275.974 52.6703 275.416 51.2938 274.99C49.9172 274.596 47.2951 273.514 45.4269 272.628C43.5587 271.709 41.9199 270.987 41.7561 270.987C41.5922 270.987 39.6912 272.398 37.528 274.137C35.3648 275.876 33.2672 277.418 32.8411 277.582C31.3662 278.172 27.7937 277.943 26.5482 277.188C25.9255 276.794 22.7462 273.809 19.5015 270.528C13.143 264.13 12.7825 263.605 12.7825 260.324C12.7825 258.323 13.733 256.42 16.5517 252.909C20.1242 248.447 19.9603 249.038 18.5837 246.118C17.961 244.74 16.8466 242.214 16.1584 240.508C15.4701 238.834 14.7818 237.391 14.5851 237.358C13.5035 237.095 8.06279 236.21 6.39123 236.046C3.60531 235.75 1.80266 234.799 0.819389 233.126L0 231.715V221.544C0 211.472 0 211.373 0.753838 210.258C1.99931 208.387 3.67086 207.698 8.39054 207.174C15.1423 206.419 14.4868 206.714 15.2734 203.991C15.6667 202.679 16.6828 199.988 17.5349 197.987C18.3871 196.018 19.1409 194.148 19.2065 193.886C19.3048 193.591 18.2232 191.983 16.6828 190.113C13.5691 186.307 12.8152 184.831 12.7825 182.567C12.7825 179.22 13.0447 178.794 19.272 172.462C22.484 169.246 25.6305 166.293 26.3516 165.933C27.9576 165.112 30.5796 164.85 32.3495 165.309C33.2672 165.572 34.9715 166.687 37.3314 168.557L40.9039 171.444L44.6731 169.64C46.738 168.623 49.5239 167.442 50.8677 167.015C52.1787 166.589 53.5553 166.129 53.9486 165.998C54.5713 165.768 54.6696 165.309 55.0302 161.733C55.489 157.271 55.9479 155.368 57.0295 153.892C58.4061 151.923 58.6027 151.89 69.8775 151.89H80.1363L81.3817 152.71C83.0205 153.826 83.8399 155.565 84.2332 158.846C84.7576 162.98 85.1181 165.276 85.3476 165.604C85.4459 165.801 86.7569 166.326 88.2318 166.786C90.7228 167.606 94.197 169.082 97.1468 170.591L98.3922 171.248L101.473 168.853C105.603 165.67 106.914 165.014 109.044 165.014C111.961 165.014 113.076 165.801 119.696 172.494C124.613 177.416 125.858 178.892 126.153 179.942C126.874 182.6 126.383 185.027 124.678 187.193C124.154 187.849 123.498 188.735 123.203 189.161C122.908 189.588 122.318 190.342 121.892 190.867C119.86 193.164 119.86 193.066 121.237 195.822C122.417 198.151 124.547 204.024 124.547 204.91C124.547 205.697 125.432 205.96 129.136 206.353C134.15 206.845 135.625 207.206 136.904 208.191C138.936 209.733 138.968 209.864 138.968 221.085C138.968 232.961 138.936 233.093 136.215 234.471C134.937 235.127 133.626 235.389 129.988 235.75C127.3 236.013 125.235 236.374 125.006 236.636C124.809 236.833 124.219 238.277 123.728 239.819C123.236 241.361 122.122 244.149 121.237 246.02L119.631 249.399L122.908 253.5C126.383 257.896 126.841 258.946 126.383 261.866C126.022 264.065 125.367 264.95 119.893 270.429C113.403 276.958 112.813 277.418 110.585 277.877C107.701 278.501 106.062 277.812 101.506 274.137L97.6384 271.053L95.6063 271.971C94.492 272.496 92.9843 273.218 92.2632 273.579C91.5421 273.973 89.7067 274.662 88.1663 275.121C84.8232 276.138 84.2332 276.598 84.2332 278.172C84.2332 280.699 83.2172 286.965 82.5944 288.212C82.2011 289.032 81.48 289.787 80.6607 290.279C79.3824 291.001 79.1202 291.001 69.2548 291.001C62.5358 290.968 58.9305 290.87 58.5044 290.607Z" fill="white" fill-opacity="0.05"/>
<path d="M154.242 261.177C154.111 260.98 152.931 260.816 151.423 260.816C150.014 260.816 148.735 260.685 148.637 260.488C148.539 260.324 147.949 260.16 147.359 260.16C146.769 260.16 146.015 259.931 145.655 259.668C145.327 259.406 144.704 259.176 144.311 259.176C143.917 259.176 143.491 259.045 143.393 258.848C143.295 258.684 142.77 258.52 142.213 258.52C141.689 258.52 141.263 258.389 141.263 258.192C141.263 258.028 140.968 257.864 140.607 257.864C140.247 257.864 139.952 257.732 139.952 257.536C139.952 257.371 139.755 257.207 139.493 257.207C138.903 257.207 137.002 256.158 137.002 255.829C137.002 255.665 136.772 255.567 136.477 255.567C136.15 255.567 135.199 254.944 134.347 254.189C133.495 253.402 132.217 252.352 131.561 251.827C130.906 251.269 130.152 250.35 129.857 249.76C129.562 249.169 129.234 248.677 129.103 248.677C128.808 248.677 127.825 246.774 127.825 246.184C127.825 245.954 127.661 245.724 127.431 245.659C126.841 245.462 126.94 242.345 127.562 241.393C127.956 240.77 128.513 240.508 129.66 240.344C132.348 239.983 184.821 240.114 185.542 240.475C186.526 241.033 186.329 243.493 185.149 245.56C184.658 246.479 184.1 247.496 183.904 247.857C183.74 248.251 183.379 248.743 183.084 248.972C182.789 249.202 182.56 249.629 182.56 249.924C182.56 250.416 181.708 251.269 179.61 252.877C178.987 253.369 178.07 254.123 177.578 254.55C177.086 254.976 176.365 255.501 175.939 255.731C175.513 255.928 174.169 256.65 172.957 257.306C171.711 257.995 170.367 258.52 169.941 258.52C169.515 258.52 169.056 258.684 168.958 258.848C168.86 259.045 168.335 259.176 167.811 259.176C167.319 259.176 166.828 259.34 166.762 259.537C166.565 260.095 164.107 260.554 159.945 260.816C157.88 260.948 155.782 261.177 155.323 261.309C154.799 261.44 154.373 261.407 154.242 261.177Z" fill="white" fill-opacity="0.05"/>
<path d="M141.263 236.046C141.263 235.947 141.623 235.16 142.049 234.307C142.508 233.421 143.033 231.78 143.262 230.599C143.819 227.778 143.819 214.457 143.262 211.636C142.77 209.011 141.296 206.058 139.984 204.943C138.51 203.729 135.691 202.777 131.758 202.187C129.857 201.924 128.218 201.596 128.087 201.498C127.792 201.202 125.203 194.476 125.203 193.984C125.203 193.755 125.989 192.541 126.973 191.261C129.496 188.013 130.25 185.913 130.283 182.239C130.283 179.548 130.185 179.056 129.201 176.989C128.251 175.021 127.3 173.872 122.318 168.853C116.091 162.553 114.518 161.438 111.044 160.781C107.471 160.125 104.03 161.175 100.392 164.062C97.8679 166.031 98.1301 166.031 92.6893 163.833L88.8546 162.291L88.658 160.453C87.9369 153.563 86.1998 150.184 82.6273 148.478C80.4968 147.461 80.3657 147.461 74.6628 147.363C71.4508 147.297 68.8287 147.199 68.8287 147.166C68.8287 145.886 74.7283 139.751 76.8587 138.767C77.6126 138.438 78.432 137.914 78.6614 137.618C78.8908 137.356 79.4152 137.126 79.8413 137.126C80.2346 137.126 80.6935 136.995 80.7918 136.798C80.8901 136.634 81.349 136.47 81.8079 136.47C83.6105 136.47 83.5777 136.831 83.5777 119.934C83.5777 111.371 83.7088 104.284 83.8727 104.186C84.0366 104.087 84.2332 103.234 84.3644 102.283C85.0199 96.9022 85.2493 95.5242 85.8393 93.9822C86.3964 92.6042 86.8553 90.9637 86.8553 90.4388C86.8553 90.1435 87.3797 88.9296 88.0024 87.7156C88.6252 86.5345 89.1496 85.1893 89.1496 84.7628C89.1496 84.3363 89.3135 83.9754 89.4773 83.9754C89.674 83.9754 89.8051 83.7785 89.8051 83.5489C89.8051 82.8599 90.7884 81.0226 91.1489 81.0226C91.3128 81.0226 91.4439 80.8257 91.4439 80.5633C91.4439 80.3008 91.9027 79.2509 92.4271 78.2338C92.9843 77.2167 93.4104 76.1668 93.4104 75.9372C93.4104 75.6747 93.7054 75.281 94.0987 75.0185C94.4592 74.756 95.082 73.9686 95.4425 73.2796C96.6224 71.0158 98.2284 68.752 99.605 67.4068C100.359 66.7178 100.949 65.9632 100.949 65.7664C100.949 65.3398 109.208 57.0719 109.667 57.0719C109.831 57.0719 110.486 56.547 111.109 55.9236C111.732 55.3003 112.387 54.7753 112.584 54.7753C112.781 54.7753 113.371 54.3488 113.895 53.791C114.42 53.2333 115.01 52.8068 115.206 52.8068C115.436 52.8068 115.829 52.5443 116.157 52.1834C116.452 51.8553 117.337 51.3303 118.09 51.0023C118.844 50.6414 119.696 50.2148 119.959 49.9852C120.778 49.329 124.908 47.2292 125.399 47.2292C125.662 47.2292 125.858 47.098 125.858 46.9011C125.858 46.7371 126.284 46.573 126.809 46.573C127.333 46.573 127.825 46.4746 127.89 46.3434C128.054 45.9497 131.528 44.2764 132.151 44.2764C132.446 44.2764 132.807 44.1452 132.905 43.9483C133.003 43.7843 133.626 43.6202 134.216 43.6202C134.839 43.6202 135.986 43.2593 136.805 42.8C137.625 42.3407 138.641 41.9798 139.1 41.9798C139.558 41.9798 140.017 41.8485 140.116 41.6517C140.214 41.4876 141.164 41.3236 142.213 41.3236C143.229 41.3236 144.213 41.1923 144.409 41.0283C144.868 40.569 148.08 40.3065 155.52 40.1424C159.781 40.044 162.632 40.1096 163.058 40.3065C163.419 40.5033 164.664 40.733 165.844 40.7986C170.204 41.1595 171.908 41.3892 172.203 41.6845C172.4 41.8485 172.924 41.9798 173.383 41.9798C173.842 41.9798 174.53 42.2094 174.89 42.4719C175.218 42.7344 175.775 42.964 176.103 42.964C176.398 42.964 176.66 43.1281 176.66 43.2921C176.66 43.489 177.086 43.6202 177.611 43.6202C178.168 43.6202 178.692 43.7843 178.791 43.9483C178.889 44.1452 179.348 44.2764 179.774 44.2764C180.2 44.2764 180.659 44.4404 180.757 44.6045C180.856 44.8013 181.314 44.9326 181.773 44.9326C182.199 44.9326 182.822 45.0638 183.15 45.2607C184.199 45.8184 188.755 47.8854 188.984 47.8854C189.115 47.8854 189.672 48.2463 190.229 48.6728C190.787 49.0993 192.294 49.9524 193.573 50.6086C194.818 51.2319 196.063 51.9865 196.293 52.2818C196.555 52.5771 196.883 52.8068 197.047 52.8068C197.211 52.8068 197.801 53.2333 198.391 53.791C198.98 54.316 199.603 54.7753 199.8 54.7753C199.997 54.7753 200.554 55.2346 201.045 55.7596C201.537 56.3173 202.291 56.9079 202.717 57.0719C203.176 57.236 203.536 57.5969 203.536 57.8922C203.536 58.1546 203.733 58.3843 203.995 58.3843C204.52 58.3843 210.485 64.3884 211.37 65.7992C211.73 66.3241 212.451 67.1771 213.008 67.6693C213.566 68.1942 214.024 68.8176 214.024 69.0473C214.024 69.2769 214.549 69.9659 215.172 70.5565C215.794 71.1799 216.319 71.836 216.319 72.0329C216.319 72.2297 216.548 72.5906 216.81 72.8203C217.105 73.05 217.564 73.7718 217.859 74.428C218.154 75.0841 218.711 76.0684 219.105 76.5934C219.957 77.7745 223.202 84.3691 223.202 84.9269C223.202 85.1237 223.366 85.583 223.529 85.9439C223.726 86.3048 224.021 86.8954 224.185 87.2563C224.382 87.6172 224.513 88.2078 224.513 88.5359C224.513 88.8968 224.677 89.2905 224.84 89.3889C225.037 89.4873 225.168 90.0123 225.168 90.5372C225.168 91.0294 225.398 91.5215 225.66 91.6527C225.922 91.7512 226.151 92.1777 226.151 92.637C226.151 93.0963 226.315 93.5557 226.479 93.6541C226.676 93.7525 226.807 94.2775 226.807 94.8352C226.807 95.3601 226.971 95.7867 227.135 95.7867C227.331 95.7867 227.462 96.8038 227.462 98.2145C227.462 99.5597 227.626 100.774 227.79 100.872C227.987 100.971 228.118 101.725 228.118 102.513C228.118 103.3 228.282 104.055 228.446 104.153C228.642 104.284 228.773 109.927 228.773 119.967C228.773 134.436 228.806 135.617 229.363 136.011C229.658 136.24 230.15 136.47 230.445 136.47C230.937 136.47 233.198 137.421 234.509 138.176C234.87 138.406 235.624 138.767 236.148 139.062C237.426 139.685 241.818 143.983 242.08 144.836C242.211 145.197 242.638 145.919 243.064 146.411C244.211 147.789 245.161 150.119 245.489 152.448C245.62 153.563 245.882 154.679 246.046 154.909C246.177 155.138 246.374 168.032 246.472 183.551L246.636 211.734L247.423 212.128C248.865 212.85 252.7 216.951 252.7 217.771C252.7 218.197 252.896 218.755 253.159 219.018C253.781 219.608 254.142 223.184 253.847 225.415C253.552 227.482 252.732 229.188 251.356 230.501C250.799 231.026 250.143 231.846 249.881 232.371C249.619 232.863 249.193 233.257 248.93 233.257C248.668 233.257 248.439 233.388 248.439 233.519C248.439 233.946 245.85 235.225 244.997 235.225C244.571 235.225 244.178 235.455 244.047 235.717C243.916 236.111 243.293 236.21 241.294 236.21C239.36 236.21 238.573 236.078 238.278 235.717C238.049 235.455 237.59 235.225 237.262 235.225C236.902 235.225 236.377 235.094 236.05 234.93C235.755 234.766 234.968 234.405 234.345 234.11C232.051 233.126 229.101 229.123 229.101 227.023C229.101 226.728 228.872 226.268 228.61 226.039C228.249 225.743 228.118 224.956 228.118 223.086C228.118 221.216 228.249 220.428 228.61 220.133C228.872 219.903 229.101 219.477 229.101 219.149C229.101 217.541 232.149 212.915 233.198 212.915C233.395 212.915 233.886 212.587 234.28 212.161C235.001 211.406 235.001 211.373 235.001 194.936V178.466H234.28C233.854 178.466 232.444 178.991 231.166 179.68L228.773 180.893V190.31C228.773 196.248 228.642 199.824 228.446 199.956C228.282 200.054 228.118 200.743 228.118 201.432C228.118 202.121 227.987 202.81 227.79 202.908C227.626 203.007 227.462 203.696 227.462 204.418C227.462 205.107 227.331 205.697 227.135 205.697C226.971 205.697 226.807 206.156 226.807 206.681C226.807 207.239 226.676 207.666 226.479 207.666C226.315 207.666 226.151 208.125 226.151 208.65C226.151 209.241 225.955 209.733 225.66 209.831C225.398 209.962 225.168 210.225 225.168 210.487C225.168 210.914 223.955 213.276 223.562 213.571C223.464 213.67 222.939 214.556 222.448 215.54C221.923 216.524 220.973 218.099 220.317 219.05C218.646 221.413 213.008 227.023 212.32 227.023C211.992 227.023 211.73 227.154 211.73 227.286C211.73 227.45 211.337 227.778 210.845 228.04C210.354 228.303 209.698 228.762 209.403 229.057C209.075 229.353 207.83 230.041 206.584 230.599C205.372 231.157 204.126 231.748 203.864 231.944C202.16 233.027 199.964 233.913 199.079 233.913C198.489 233.913 197.899 234.077 197.801 234.241C197.702 234.438 197.243 234.569 196.817 234.569C196.391 234.569 195.932 234.733 195.834 234.897C195.736 235.094 194.785 235.225 193.736 235.225C192.425 235.225 191.672 235.389 191.409 235.717C191.049 236.144 187.837 236.21 166.139 236.21C152.439 236.21 141.263 236.144 141.263 236.046ZM172.268 162.422C172.432 162.258 172.924 162.061 173.383 161.995C174.53 161.864 176.333 158.386 175.743 157.435C175.513 157.107 175.349 156.582 175.349 156.319C175.349 156.057 175.218 155.827 175.022 155.827C174.858 155.827 174.694 155.63 174.694 155.434C174.661 154.712 172.432 153.531 171.154 153.531C168.729 153.531 166.5 155.795 166.5 158.255C166.5 160.453 168.663 162.619 170.957 162.684C171.482 162.717 172.072 162.586 172.268 162.422ZM187.804 162.389C187.804 162.225 187.968 162.061 188.197 162.061C188.722 162.061 190.098 160.716 190.098 160.191C190.098 159.961 190.262 159.764 190.426 159.764C190.623 159.764 190.754 159.108 190.754 158.321C190.754 157.501 190.623 156.746 190.426 156.648C190.262 156.549 190.098 156.188 190.098 155.893C190.098 155.007 187.575 153.531 186.067 153.531C184.133 153.531 181.904 154.974 181.904 156.221C181.904 156.549 181.741 157.107 181.511 157.435C180.987 158.288 182.56 161.536 183.805 162.192C184.821 162.717 187.804 162.881 187.804 162.389ZM201.734 162.389C201.832 162.225 202.258 162.061 202.651 162.061C203.045 162.028 203.864 161.602 204.487 161.077C205.47 160.257 205.634 159.863 205.765 158.288C205.896 156.549 205.863 156.451 204.749 155.401C204.094 154.81 202.881 154.154 202.061 153.892C200.652 153.465 200.423 153.498 198.915 154.187C198.03 154.613 197.309 155.138 197.309 155.401C197.309 155.63 197.178 155.827 196.981 155.827C196.785 155.827 196.653 156.812 196.653 158.124C196.653 159.436 196.785 160.421 196.981 160.421C197.178 160.421 197.309 160.617 197.309 160.847C197.309 161.306 199.8 162.619 200.816 162.684C201.209 162.684 201.635 162.586 201.734 162.389ZM189.771 127.152C190.59 127.021 191.54 126.791 191.901 126.627C192.262 126.496 193.441 126.102 194.523 125.807C195.605 125.479 196.719 125.02 197.014 124.79C197.276 124.527 197.702 124.331 197.899 124.331C198.489 124.331 202.225 120.525 202.225 119.934C202.225 119.639 202.389 119.409 202.553 119.409C202.75 119.409 202.881 119.18 202.881 118.917C202.881 118.655 203.176 117.933 203.536 117.277C203.897 116.62 204.192 115.833 204.192 115.505C204.192 115.177 204.388 114.718 204.651 114.521C205.372 113.93 205.601 111.83 205.601 105.301C205.634 98.8379 205.372 96.3444 204.651 95.7539C204.388 95.557 204.192 94.8024 204.192 94.1134C204.192 93.3916 204.061 92.8339 203.864 92.8339C203.7 92.8339 203.536 92.3089 203.536 91.6855C203.536 91.0622 203.405 90.5372 203.209 90.5372C203.045 90.5372 202.881 90.2091 202.881 89.7826C202.881 89.3561 202.586 88.6999 202.225 88.3062C201.865 87.9125 201.57 87.2891 201.57 86.8954C201.57 86.5345 201.209 85.9111 200.75 85.5502C200.292 85.1893 199.931 84.6316 199.931 84.2707C199.931 83.9426 199.8 83.6473 199.669 83.6473C199.407 83.6473 197.964 81.1866 197.964 80.7273C197.964 80.3008 194.326 76.7902 193.704 76.5934C193.376 76.4949 193.048 76.134 192.95 75.7731C192.851 75.4122 192.425 74.9857 191.999 74.8217C191.606 74.6576 190.885 74.1327 190.459 73.6733C189.672 72.8203 188.001 71.836 187.411 71.836C187.247 71.836 186.46 71.3111 185.706 70.6877C184.92 70.0643 184.068 69.5394 183.74 69.5394C183.445 69.5394 183.215 69.4082 183.215 69.2113C183.215 69.0473 182.92 68.8832 182.56 68.8832C182.199 68.8832 181.904 68.752 181.904 68.5551C181.904 68.3911 181.609 68.227 181.282 68.227C180.921 68.227 180.528 68.0958 180.43 67.8989C180.331 67.7349 179.807 67.5709 179.25 67.5709C178.725 67.5709 178.299 67.4396 178.299 67.2428C178.299 67.0787 178.004 66.9147 177.644 66.9147C177.25 66.9147 176.529 66.685 176.005 66.4225C175.48 66.1601 174.202 65.7992 173.153 65.6023C172.105 65.4383 170.531 65.143 169.614 64.9461C162.108 63.3057 149.522 63.3057 142.902 64.9133C142.082 65.1102 140.181 65.4711 138.641 65.7007C136.772 65.9632 135.494 66.3569 134.806 66.8491C134.249 67.2428 133.397 67.5709 132.938 67.5709C132.479 67.5709 132.086 67.7349 132.086 67.8989C132.086 68.0958 131.791 68.227 131.43 68.227C131.07 68.227 130.775 68.3911 130.775 68.5551C130.775 68.752 130.48 68.8832 130.152 68.8832C129.791 68.8832 129.398 69.0473 129.3 69.2113C129.201 69.4082 128.808 69.5394 128.447 69.5394C128.12 69.5394 127.825 69.6706 127.825 69.8347C127.825 70.1628 125.989 71.1799 125.399 71.1799C125.17 71.1799 124.809 71.4751 124.547 71.836C124.285 72.1969 123.892 72.4922 123.629 72.4922C123.4 72.4922 122.646 73.0172 121.991 73.6405C121.335 74.2639 120.647 74.7889 120.483 74.7889C120.352 74.7889 119.205 75.8387 117.959 77.0855C116.714 78.365 115.534 79.3821 115.37 79.3821C115.173 79.3821 115.042 79.6774 115.042 80.0383C115.042 80.432 114.682 81.0882 114.223 81.5475C113.764 82.0069 113.109 83.0239 112.748 83.8114C112.387 84.5988 111.929 85.3534 111.765 85.4518C111.273 85.7471 109.798 88.8968 109.798 89.5858C109.798 89.9138 109.667 90.2747 109.47 90.3732C109.307 90.4716 109.143 91.1606 109.143 91.8824C109.143 92.7354 108.979 93.2604 108.651 93.3588C108.389 93.49 108.159 93.9822 108.159 94.4743C108.159 94.9993 108.028 95.5242 107.832 95.6226C107.668 95.7211 107.504 96.5413 107.504 97.4599C107.504 98.3458 107.373 99.0676 107.176 99.0676C106.979 99.0676 106.848 101.43 106.848 105.465C106.848 109.501 106.979 111.863 107.176 111.863C107.373 111.863 107.504 112.552 107.537 113.438C107.537 114.357 107.799 115.374 108.159 115.964C108.52 116.522 109.241 117.9 109.831 119.081C110.847 121.148 113.076 123.674 113.862 123.674C114.059 123.674 114.452 123.97 114.715 124.331C114.977 124.691 116.157 125.282 117.5 125.676C118.746 126.037 120.122 126.496 120.549 126.66C120.975 126.824 121.86 126.955 122.581 126.955C123.269 126.955 123.957 127.119 124.056 127.283C124.285 127.677 187.312 127.546 189.771 127.152Z" fill="white" fill-opacity="0.05"/>
<path d="M119.008 112.355C117.173 111.371 115.599 109.829 114.846 108.221C114.485 107.532 114.125 106.942 113.993 106.942C113.83 106.942 113.731 105.17 113.731 103.005C113.731 100.61 113.862 99.0676 114.059 99.0676C114.256 99.0676 114.387 98.8379 114.387 98.5427C114.387 98.2802 115.468 97.0006 116.779 95.6883C119.467 93.0307 120.647 92.5058 124.056 92.5058C126.088 92.5058 128.48 93.2604 128.48 93.8838C128.48 94.015 128.71 94.1462 128.972 94.1462C129.627 94.1462 131.889 96.2132 132.741 97.5912C133.692 99.1332 134.38 101.594 134.38 103.497C134.38 104.744 134.085 105.761 133.167 107.664C132.479 109.074 131.758 110.223 131.561 110.223C131.364 110.223 130.676 110.748 130.021 111.371C129.365 111.994 128.611 112.519 128.316 112.519C128.054 112.519 127.825 112.683 127.825 112.847C127.825 113.044 126.415 113.175 124.154 113.143C120.975 113.11 120.254 113.011 119.008 112.355Z" fill="white" fill-opacity="0.05"/>
<path d="M184.69 112.847C184.592 112.683 184.199 112.519 183.838 112.519C183.51 112.519 183.215 112.388 183.215 112.191C183.215 112.027 182.593 111.502 181.872 111.01C181.118 110.551 180.429 109.895 180.364 109.534C180.266 109.206 180.069 108.91 179.905 108.91C179.741 108.91 179.61 108.681 179.61 108.418C179.61 108.156 179.315 107.434 178.955 106.778C178.43 105.859 178.299 105.006 178.299 102.677C178.299 100.938 178.43 99.7238 178.627 99.7238C178.823 99.7238 178.955 99.4285 178.955 99.0676C178.955 98.7067 179.118 98.4114 179.282 98.4114C179.479 98.4114 179.61 98.1489 179.61 97.788C179.61 97.0334 182.265 94.6712 184.494 93.4572C185.903 92.6698 186.591 92.5058 188.394 92.5058C191.442 92.5058 193.048 93.162 195.342 95.3602C198.063 97.9193 198.948 99.8878 198.948 103.267C198.948 105.564 198.817 106.122 197.932 107.795C196.784 109.993 196.096 110.879 195.473 110.879C195.244 110.879 194.687 111.24 194.228 111.699C193.769 112.158 193.179 112.519 192.884 112.519C192.622 112.519 192.393 112.683 192.393 112.847C192.393 113.044 190.918 113.176 188.656 113.176C186.493 113.176 184.821 113.044 184.69 112.847Z" fill="white" fill-opacity="0.05"/>
<path d="M151.489 35.6804C151.226 35.418 151.095 33.7447 151.095 30.2669C151.095 24.7222 151.062 24.6238 148.604 23.4426C147.883 23.1145 147.49 22.688 147.49 22.2943C147.49 21.9334 147.293 21.6381 147.064 21.6381C146.507 21.6381 144.54 19.2431 144.54 18.5541C144.54 18.2916 144.409 17.9635 144.212 17.8651C144.049 17.7667 143.885 17.0121 143.885 16.2246C143.885 15.4372 143.754 14.6826 143.557 14.5842C143.393 14.4858 143.229 13.6655 143.229 12.7797C143.229 11.8938 143.393 11.0736 143.557 10.9752C143.754 10.8768 143.885 10.4502 143.885 10.0565C143.885 9.13787 145.982 5.00393 146.933 3.98685C147.326 3.56033 148.244 2.93696 148.965 2.60887C149.686 2.28077 150.636 1.69021 151.062 1.32931C151.521 0.935602 152.308 0.64032 152.963 0.64032C153.553 0.64032 154.045 0.509084 154.045 0.312229C154.045 -0.0814802 157.781 -0.114289 158.568 0.27942C161.387 1.69021 164.074 2.93696 164.304 2.93696C164.697 2.93696 165.517 3.8228 165.517 4.21651C165.517 4.41337 166.041 5.13517 166.664 5.85697C167.286 6.54596 167.811 7.4318 167.811 7.7927C167.811 8.18641 167.975 8.58012 168.139 8.67855C168.335 8.77698 168.466 9.46597 168.466 10.1878C168.466 10.8768 168.63 11.4673 168.794 11.4673C168.991 11.4673 169.122 12.1235 169.122 12.9109C169.122 13.7311 168.991 14.4858 168.794 14.5842C168.63 14.6826 168.466 15.3716 168.466 16.0606C168.466 16.7496 168.335 17.4386 168.139 17.537C167.975 17.6354 167.811 18.0619 167.811 18.4885C167.811 18.8822 167.418 19.5712 166.959 20.0305C166.5 20.457 165.91 21.2116 165.648 21.7366C165.385 22.2287 164.992 22.6224 164.795 22.6224C164.599 22.6224 164.14 22.8521 163.812 23.1802C163.484 23.4755 162.894 23.8692 162.468 24.066C161.78 24.4269 161.747 24.6238 161.649 29.8404C161.583 34.4665 161.485 35.3195 161.026 35.6804C160.272 36.2382 152.046 36.2382 151.489 35.6804Z" fill="white" fill-opacity="0.05"/>
</svg>
