<svg width="89" height="89" viewBox="0 0 89 89" class="svg_alert" fill="none" xmlns="http://www.w3.org/2000/svg">
<path fill-rule="evenodd" clip-rule="evenodd" d="M44.5 89C69.0767 89 89 69.0767 89 44.5C89 19.9233 69.0767 0 44.5 0C19.9233 0 0 19.9233 0 44.5C0 69.0767 19.9233 89 44.5 89ZM41.1562 52.0312H48.6562L49.7188 20.5H40.0938L41.1562 52.0312ZM48.5625 58.3125C47.6458 57.4167 46.4271 56.9688 44.9062 56.9688C43.4062 56.9688 42.1875 57.4271 41.25 58.3438C40.3333 59.2396 39.875 60.375 39.875 61.75C39.875 63.125 40.3333 64.2604 41.25 65.1562C42.1875 66.0521 43.4062 66.5 44.9062 66.5C46.4271 66.5 47.6458 66.0521 48.5625 65.1562C49.5 64.2604 49.9688 63.125 49.9688 61.75C49.9688 60.3542 49.5 59.2083 48.5625 58.3125Z"/>
</svg>
