<svg width="50" height="51" viewBox="0 0 50 51" fill="none" class="svg_checkmark-alert" xmlns="http://www.w3.org/2000/svg">
<path fill-rule="evenodd" clip-rule="evenodd" d="M39.5696 24.1466C39.8517 22.8088 40 21.4217 40 20C40 8.9543 31.0457 0 20 0C8.9543 0 0 8.9543 0 20C0 31.0457 8.9543 40 20 40C21.0386 40 22.0588 39.9208 23.0547 39.7682C23.0185 39.3503 23 38.9273 23 38.5C23 30.4919 29.4919 24 37.5 24C38.2027 24 38.8936 24.05 39.5696 24.1466Z" class="svg_checkmark-alert_circle"/>
<path fill-rule="evenodd" clip-rule="evenodd" d="M37.5 51C44.4036 51 50 45.4036 50 38.5C50 31.5964 44.4036 26 37.5 26C30.5964 26 25 31.5964 25 38.5C25 45.4036 30.5964 51 37.5 51ZM36.498 41.0713H38.6074L38.9062 32.2031H36.1992L36.498 41.0713ZM38.5811 42.8379C38.3232 42.5859 37.9805 42.46 37.5527 42.46C37.1309 42.46 36.7881 42.5889 36.5244 42.8467C36.2666 43.0986 36.1377 43.418 36.1377 43.8047C36.1377 44.1914 36.2666 44.5107 36.5244 44.7627C36.7881 45.0146 37.1309 45.1406 37.5527 45.1406C37.9805 45.1406 38.3232 45.0146 38.5811 44.7627C38.8447 44.5107 38.9766 44.1914 38.9766 43.8047C38.9766 43.4121 38.8447 43.0898 38.5811 42.8379Z" class="svg_checkmark-alert_alert"/>
<path d="M12 19L18.6957 26L30 15" class="svg_checkmark-alert_checkmark" stroke="white" stroke-width="3"/>
</svg>
