<svg width="20" height="20" viewBox="0 0 20 20" fill="none" xmlns="http://www.w3.org/2000/svg">
<path d="M10 0C4.48889 0 0 4.48889 0 10C0 15.5111 4.48889 20 10 20C15.5111 20 20 15.5111 20 10C20 4.48889 15.5111 0 10 0ZM10 17.7778C5.71111 17.7778 2.22222 14.2889 2.22222 10C2.22222 5.71111 5.71111 2.22222 10 2.22222C14.2889 2.22222 17.7778 5.71111 17.7778 10C17.7778 14.2889 14.2889 17.7778 10 17.7778Z" fill="#FE8D4D"/>
<path d="M13.5335 8.03334L11.9668 6.46667L10.0001 8.42779L8.03346 6.46667L6.4668 8.03334L8.42791 10L6.4668 11.9667L8.03346 13.5333L10.0001 11.5722L11.9668 13.5333L13.5335 11.9667L11.5724 10L13.5335 8.03334Z" fill="#FE8D4D"/>
</svg>
